<svg width="180" height="180" viewBox="0 0 180 180" fill="none" xmlns="http://www.w3.org/2000/svg">
    <g id="Purse">
        <path id="Vector" d="M143.539 75.3526C143.496 75.1783 143.435 75.0087 143.359 74.8463C143.259 74.499 143.055 74.1908 142.774 73.9632C142.658 73.8311 142.53 73.7106 142.391 73.6032C142.228 73.5031 142.054 73.4201 141.874 73.3557C141.748 73.2831 141.616 73.221 141.48 73.1701L127.806 69.7501C123.606 68.718 119.236 68.5838 114.981 69.3563L106.228 44.6738C104.534 41.2838 101.896 38.4555 98.6324 36.529C95.3687 34.6024 91.618 33.6597 87.8312 33.8142C84.0445 33.9687 80.383 35.2138 77.2871 37.3998C74.1912 39.5858 71.7927 42.6196 70.38 46.1363L63.9394 69.1595C60.1022 68.6211 56.198 68.8101 52.4307 69.7163L38.52 73.1644C38.1613 73.2533 37.8236 73.412 37.5263 73.6314C37.2289 73.8509 36.9777 74.1268 36.787 74.4433C36.5964 74.7599 36.47 75.111 36.415 75.4764C36.3601 75.8419 36.3777 76.2146 36.4669 76.5732C36.5633 76.953 36.7398 77.3078 36.9844 77.6138L48.0263 143.859C48.1355 144.516 48.4741 145.113 48.9819 145.543C49.4896 145.974 50.1337 146.21 50.7994 146.211H129.549C130.215 146.21 130.859 145.974 131.367 145.543C131.875 145.113 132.213 144.516 132.323 143.859L143.573 76.3594C143.582 76.2094 143.578 76.0589 143.561 75.9094C143.572 75.7235 143.565 75.537 143.539 75.3526ZM75.6788 47.9869C76.7197 45.5422 78.4309 43.4417 80.6148 41.9281C82.7987 40.4145 85.3662 39.5495 88.0208 39.433C90.6753 39.3166 93.3087 39.9534 95.6168 41.2699C97.9248 42.5864 99.8134 44.529 101.064 46.8732L109.536 70.8132C109.299 70.9032 109.052 70.9426 108.816 71.0382L99.5457 74.7451C93.5299 77.1638 86.8135 77.1719 80.7919 74.7676L71.3082 70.9988C70.6894 70.7513 70.0482 70.6107 69.4182 70.4082L75.6788 47.9869ZM127.17 140.586H53.1844L42.7388 77.9176L53.7863 75.1782C56.6078 74.4897 59.5273 74.2956 62.415 74.6044L59.58 84.7463C57.7032 85.3406 56.0954 86.5766 55.0387 88.2377C53.9819 89.8987 53.5436 91.8787 53.8005 93.8306C54.0575 95.7824 54.9934 97.5815 56.444 98.9125C57.8947 100.243 59.7676 101.021 61.7343 101.109C63.701 101.198 65.6361 100.591 67.2001 99.3952C68.7642 98.1995 69.8574 96.4915 70.2882 94.5705C70.719 92.6495 70.4598 90.6382 69.5561 88.8892C68.6523 87.1402 67.1618 85.7651 65.3457 85.0051L67.9107 75.8138C68.3494 75.9601 68.7994 76.0501 69.2325 76.2244L78.7163 79.9932C86.075 82.928 94.281 82.9179 101.633 79.9651L110.903 76.2638C111.071 76.1963 111.24 76.1682 111.409 76.1063L114.632 85.2076C112.848 86.0706 111.426 87.5341 110.614 89.3414C109.801 91.1487 109.652 93.1843 110.191 95.091C110.729 96.9976 111.923 98.6536 113.561 99.7684C115.199 100.883 117.177 101.385 119.148 101.187C121.12 100.989 122.958 100.103 124.342 98.684C125.725 97.2653 126.564 95.4049 126.713 93.429C126.861 91.4532 126.309 89.4883 125.153 87.8789C123.997 86.2696 122.312 85.1187 120.392 84.6282L116.888 74.7507C120.071 74.2875 123.313 74.4403 126.439 75.2007L137.599 77.9963L127.17 140.586ZM62.0494 89.9607C62.6057 89.9607 63.1495 90.1256 63.612 90.4347C64.0745 90.7437 64.435 91.183 64.6478 91.6969C64.8607 92.2108 64.9164 92.7763 64.8079 93.3219C64.6994 93.8675 64.4315 94.3686 64.0382 94.7619C63.6448 95.1553 63.1437 95.4231 62.5981 95.5317C62.0525 95.6402 61.487 95.5845 60.9731 95.3716C60.4592 95.1587 60.02 94.7983 59.7109 94.3357C59.4019 93.8732 59.2369 93.3295 59.2369 92.7732C59.2369 92.0273 59.5332 91.3119 60.0607 90.7845C60.5881 90.257 61.3035 89.9607 62.0494 89.9607ZM118.299 89.9607C118.856 89.9607 119.399 90.1256 119.862 90.4347C120.324 90.7437 120.685 91.183 120.898 91.6969C121.111 92.2108 121.166 92.7763 121.058 93.3219C120.949 93.8675 120.681 94.3686 120.288 94.7619C119.895 95.1553 119.394 95.4231 118.848 95.5317C118.303 95.6402 117.737 95.5845 117.223 95.3716C116.709 95.1587 116.27 94.7983 115.961 94.3357C115.652 93.8732 115.487 93.3295 115.487 92.7732C115.487 92.0273 115.783 91.3119 116.311 90.7845C116.838 90.257 117.554 89.9607 118.299 89.9607Z" fill="#0B090A"/>
        <path id="Vector_2" d="M118.299 123.71H101.424C100.678 123.71 99.963 124.007 99.4356 124.534C98.9081 125.062 98.6118 125.777 98.6118 126.523C98.6118 127.269 98.9081 127.984 99.4356 128.512C99.963 129.039 100.678 129.335 101.424 129.335H118.299C119.045 129.335 119.761 129.039 120.288 128.512C120.816 127.984 121.112 127.269 121.112 126.523C121.112 125.777 120.816 125.062 120.288 124.534C119.761 124.007 119.045 123.71 118.299 123.71Z" fill="#EAA724"/>
    </g>
</svg>
