<svg width="17" height="18" viewBox="0 0 17 18" fill="none" xmlns="http://www.w3.org/2000/svg">
<path d="M16.715 7.81071C16.7241 7.7489 16.7241 7.6861 16.715 7.62429V7.56643C16.6999 7.49839 16.6739 7.43325 16.6379 7.37357L15.3522 5.445C15.2534 5.31368 15.1081 5.22516 14.9461 5.19764C14.7841 5.17012 14.6177 5.20568 14.4811 5.29703C14.3445 5.38837 14.248 5.52855 14.2116 5.68878C14.1751 5.84901 14.2014 6.01712 14.285 6.15857L14.9279 7.09071H12.8579V0.642857C12.8579 0.472361 12.7901 0.308848 12.6696 0.188288C12.549 0.0677294 12.3855 0 12.215 0H0.643592H0.579306H0.476449C0.419895 0.0161101 0.36582 0.0399033 0.315735 0.0707142H0.257878C0.209999 0.113615 0.168827 0.163456 0.135735 0.218571C0.11944 0.239064 0.104412 0.260532 0.0907347 0.282857C0.0259998 0.391402 -0.00530467 0.516619 0.000734586 0.642857V14.7857C0.00133959 14.865 0.0165961 14.9434 0.0457345 15.0171C0.0552416 15.0392 0.0659726 15.0606 0.0778774 15.0814C0.100505 15.1275 0.128562 15.1706 0.161449 15.21L0.219306 15.2679C0.256667 15.3003 0.297653 15.3284 0.341449 15.3514L0.418592 15.39H0.457163L9.45716 17.9614C9.51705 17.9835 9.57988 17.9965 9.64359 18C9.81409 18 9.9776 17.9323 10.0982 17.8117C10.2187 17.6912 10.2864 17.5276 10.2864 17.3571V15.4286H12.215C12.3855 15.4286 12.549 15.3608 12.6696 15.2403C12.7901 15.1197 12.8579 14.9562 12.8579 14.7857V8.35714H14.87L14.2272 9.28929C14.1746 9.35915 14.1369 9.439 14.1162 9.52396C14.0956 9.60891 14.0925 9.69718 14.1071 9.78337C14.1218 9.86956 14.1539 9.95185 14.2014 10.0252C14.2489 10.0986 14.3109 10.1615 14.3836 10.2101C14.4563 10.2587 14.5381 10.292 14.624 10.3078C14.71 10.3237 14.7983 10.3219 14.8836 10.3025C14.9688 10.2831 15.0492 10.2466 15.1198 10.195C15.1904 10.1435 15.2498 10.0781 15.2943 10.0029L16.58 8.07429C16.6097 8.01983 16.6314 7.96137 16.6443 7.90071C16.6443 7.90071 16.715 7.81714 16.715 7.81071ZM11.5722 7.07143H10.2864V3.21429C10.2918 3.07 10.2484 2.92812 10.1633 2.8115C10.0781 2.69488 9.95622 2.61031 9.81716 2.57143L5.23359 1.28571H11.5722V7.07143ZM11.5722 14.1429H10.2864V8.35714H11.5722V14.1429Z" fill="black"/>
</svg>
