<svg width="250" height="250" viewBox="0 0 250 250" fill="none" xmlns="http://www.w3.org/2000/svg">
    <path d="M24.2969 116.523L87.8027 156.86L100.381 170.693L184.741 210.938C196.591 216.587 210.091 217.734 222.725 214.165L234.087 210.938" stroke="#0B090A" stroke-width="7" stroke-linecap="round" stroke-linejoin="round"/>
    <path d="M46.875 234.375H216.016" stroke="#0B090A" stroke-width="7" stroke-linecap="round" stroke-linejoin="round"/>
    <path d="M15.625 234.375H31.25" stroke="#EAA724" stroke-width="7" stroke-linecap="round" stroke-linejoin="round"/>
    <path d="M124.512 125.488L151.616 99.3604" stroke="#EAA724" stroke-width="7" stroke-linecap="round" stroke-linejoin="round"/>
    <path d="M140.879 141.855L161.094 122.612" stroke="#EAA724" stroke-width="7" stroke-linecap="round" stroke-linejoin="round"/>
    <path d="M156.489 157.466L172.407 142.529" stroke="#EAA724" stroke-width="7" stroke-linecap="round" stroke-linejoin="round"/>
    <path d="M57.0996 60.4346L18.1103 127.1C16.7809 129.374 16.3861 132.075 17.0092 134.635C17.6322 137.194 19.2243 139.412 21.4502 140.82L71.914 172.754C72.615 173.199 73.4043 173.486 74.2271 173.595C75.0499 173.705 75.8867 173.634 76.6796 173.389C77.4099 173.164 78.1776 173.086 78.938 173.162C79.6984 173.237 80.4362 173.463 81.1082 173.827C81.7802 174.19 82.3729 174.684 82.8516 175.28C83.3304 175.876 83.6856 176.561 83.8964 177.295L84.624 179.829C84.8472 180.608 85.2323 181.33 85.7539 181.949C86.2756 182.569 86.9222 183.071 87.6513 183.423L178.179 227.051C189.942 232.72 202.997 235.172 216.016 234.155C219.794 233.858 223.409 232.488 226.436 230.207C229.464 227.926 231.777 224.829 233.105 221.279C234.241 218.24 234.617 214.97 234.201 211.752C233.784 208.535 232.589 205.468 230.718 202.817C193.54 174.058 161.03 140.02 147.334 84.7169L148.437 78.794C148.759 77.0576 148.729 75.2741 148.348 73.5496C147.968 71.8251 147.245 70.1946 146.222 68.755C145.199 67.3153 143.897 66.0959 142.394 65.1691C140.891 64.2422 139.216 63.6268 137.471 63.3594C135.482 63.0528 133.45 63.2054 131.53 63.8055C129.609 64.4055 127.852 65.4372 126.392 66.8214L111.992 80.4639C109.005 83.294 105.307 85.2624 101.292 86.1599C97.276 87.0575 93.0922 86.8507 89.1845 85.5616L76.4892 81.3721C72.1943 79.9547 68.4183 77.2913 65.6419 73.7211C62.8654 70.1508 61.2142 65.835 60.8984 61.3233C60.8717 60.886 60.7047 60.4689 60.4221 60.1341C60.1395 59.7992 59.7565 59.5645 59.3298 59.4647C58.9032 59.3649 58.4558 59.4053 58.054 59.5801C57.6522 59.7548 57.3175 60.0545 57.0996 60.4346Z" stroke="#0B090A" stroke-width="7" stroke-linecap="round" stroke-linejoin="round"/>
</svg>
