<svg width="150" height="150" viewBox="0 0 150 150" fill="none" xmlns="http://www.w3.org/2000/svg">
<g id="item ok">
<circle id="Ellipse 23" cx="75" cy="75" r="74.5" stroke="#AE9667"/>
<path id="cerrar" d="M65.371 63.4068C64.8286 62.8644 63.9492 62.8644 63.4068 63.4068C62.8644 63.9492 62.8644 64.8286 63.4068 65.371L73.5358 75.5L63.4068 85.629C62.8644 86.1714 62.8644 87.0508 63.4068 87.5932C63.9492 88.1356 64.8286 88.1356 65.371 87.5932L75.5 77.4642L85.629 87.5932C86.1714 88.1356 87.0508 88.1356 87.5932 87.5932C88.1356 87.0508 88.1356 86.1714 87.5932 85.629L77.4642 75.5L87.5932 65.371C88.1356 64.8286 88.1356 63.9492 87.5932 63.4068C87.0508 62.8644 86.1714 62.8644 85.629 63.4068L75.5 73.5358L65.371 63.4068Z" fill="#AE9667"/>
</g>
</svg>
